<svg xmlns="http://www.w3.org/2000/svg" width="200" height="200" viewBox="0 0 200 200">
<!-- SVG created with Arrow, by QuiverAI (https://quiver.ai) -->
  <path d="m163.2 53.36c0-7.58-7.34-12.74-18.11-16.63 4.99-8.75 6.54-16.24 5.57-22.51 1.57-1.28 2.33-3.61 1.75-6.06-0.87-3.53-4.47-4.92-7.42-3.55-1.05 0.49-1.82 1.15-2.42 1.94-7.38-1.57-15.65 1.24-24.21 5.37-6.45-3.33-12.66-4.81-19.29-4.81-17.19 0-32.11 10.5-39.1 24.94-0.53 0.97-1.04 2.08-1.51 3.3-12.42 4.4-22.08 10.06-22.08 18.27 0 7.06 6.98 12.6 18.03 16.8-5.84 9.29-7.08 17.47-5.72 23.54-1.8 1.43-2.35 4.1-1.1 6.62 1.85 3.86 7.47 4.33 9.77 0.68 4.87 1.41 11.22 0.27 16.32-1.31l24.16 50.27c0.89 1.93 3.03 1.73 3.6 0l32.47-66.94c3.12-3.8 5.15-7.07 7.02-10.97 12.71-4.74 22.27-10.48 22.27-18.95zm-4.51 0.35c0 6.45-7.08 10.68-15.62 14.01 1.62-4.85 2.57-9.64 2.29-14.63-0.17-4.1-0.69-8.02-1.57-11.72 8.89 3.74 14.9 7.49 14.9 12.34zm-21.9 14.92c-3.46 1.19-7.07 2.28-10.1 3.08v3.75c3.32-0.8 5.54-1.37 8.35-2.28-6.34 10.79-14.87 16.95-24.05 19.85 3.04-3.37 5.47-7.64 6.68-10.97h-4.12c-3.36 7.27-7.59 11.48-12.59 12.21v-12.21h-3.87v12.47c-5.27-0.85-9.38-5.74-12.08-12.47h-3.65c1.67 4.85 4.55 9.09 7.5 11.85-9.74-2.99-17.62-9.46-23.89-19.73 1.05 0.29 1.41 0.4 1.76 0.49v-3.99c-1.51-0.5-2.99-1.02-4.42-1.56-1.67-4.3-3.35-8.99-4.16-14.16h8.18v-3.65h-8.55c0.15-9.46 3.93-18.45 9.96-25.49 3.93 2.24 7.5 3.6 10.58 4.39l-0.66 4.31h3.46l0.6-3.46c5.65 1.36 11.18 1.82 15.9 1.96v1.23h3.46v-1.16c5.49-0.21 10.98-0.91 16.13-2.33l1.05 3.76h3.32l-1.22-4.51c3.78-1.23 7.4-2.7 10.38-4.25 3.7 4.15 6.49 8.82 8.19 13.09-3.89 5.94-7.66 10.5-10.36 12.06h-1.56v8.32l4.16-4.51h10.19c-0.32 4.65-1.82 9.61-4.57 13.91zm-35.71-57.77c6.15 1.23 11.48 8 14.65 17.07-4.72 1.09-9.72 1.46-14.65 1.54v-18.61zm-3.46 0.06v18.55c-4.86-0.12-9.58-0.69-13.59-1.7 3.46-9.06 8.53-16.02 13.59-16.85zm30.75 12.31c-3.03 1.55-6.29 2.78-9.71 3.73-2.3-6.23-4.95-11.25-7.89-14.65 6.42 2.17 12.59 5.8 17.6 10.92zm-40.56-10.66c-3.1 3.69-5.73 8.44-7.68 14.04-3.24-0.95-6.25-2.18-8.97-3.7 5.8-5.6 12.11-8.53 16.65-10.34zm52.83 30.87c0.52 2.48 0.88 5.07 1 7.55h-6.98l5.98-7.55zm1.12-8.39c-4.53-9.63-11.43-17.74-19.78-22.48 5.88-2.59 11.89-4.11 18.94-3.16 0 4.17 2.79 6.2 6.47 5.9 0.79 4.9-1.07 11.48-5.63 19.74zm-101.5 18.57c0-5.83 6.01-10.11 15.53-13.87-1.18 4.41-2.05 9.63-1.89 14.43 0 4.61 0.99 8.98 2.29 13.11-8.79-3.83-15.93-8.1-15.93-13.67zm12.43 39.55c-2.09-4.38 0.28-12.05 5.41-20.44l0.57 0.22c4.43 5.96 9.02 13.66 13.2 23.52-4.92 1.45-9.81 1.99-13.81 1.04-0.12-3-2.27-4.62-5.37-4.34zm20.23-4.05c2.37 2.03 4.67 3.67 7.04 4.79-1.41 0.58-2.65 1.05-3.72 1.41-0.97-2.11-2.09-4.28-3.32-6.2zm4.77 9.55c2.47-0.95 4.93-2.04 7.31-2.99 10.89 3.13 21.94 2.73 33.29-1.55-10.47 9.78-22.28 18.1-32.59 22.48l-8.01-17.94zm9.71 21.34c12.34-5.29 24.77-14.2 37.29-26.2l-25.35 52.25-11.94-26.05z" fill="#b88f4d"/>
  <path d="m122.1 37.52h-44.1c-0.99 0-1.39 0.25-1.39 1.37v5.94h-5.21c-1.05 0-1.49 0.62-1.49 1.68v25.6c0 4.42 2.29 6.13 5.19 6.13h41.7c4.31 0 6.6-2.92 6.6-7.03v-32.32c0-0.95-0.48-1.37-1.3-1.37zm-45.09 35.29c0 1.23-0.6 1.71-1.39 1.71-1.3 0-2.17-0.62-2.17-2.79v-23.71h3.56v24.79zm42.93-1.88c0 2.63-1.32 3.73-3.7 3.73h-36.03v-33.81h39.73v30.08z" fill="#b88f4d"/>
  <path d="m83.58 44.93h14.09v14.17h-14.09v-14.17z" fill="#b88f4d"/>
  <path d="m101 44.93h15.52v2.48h-15.52v-2.48z" fill="#b88f4d"/>
  <path d="m101 50.91h15.52v2.48h-15.52v-2.48z" fill="#b88f4d"/>
  <path d="m101 56.28h15.52v2.48h-15.52v-2.48z" fill="#b88f4d"/>
  <path d="m83.58 62.22h33.11v2.49h-33.11v-2.49z" fill="#b88f4d"/>
  <path d="m83.58 68.16h14.85v2.48h-14.85v-2.48z" fill="#b88f4d"/>
  <path d="m100.8 68.16h15.52v2.48h-15.52v-2.48z" fill="#b88f4d"/>
  <path d="m32 183.2 2.68-5.47c2.41 1.71 6.11 2.84 9.33 2.84 3.18 0 4.37-0.89 4.37-2.31 0-3.83-15.06-0.38-15.06-9.83 0-4.79 4.17-7.45 11.17-7.45 3.42 0 7.43 0.89 8.5 2.12l-2.29 5.02c-2.59-1.55-5.04-1.99-7.09-1.99-3.1 0-4.4 1.02-4.4 2.38 0 4.02 15.06 0.62 15.06 9.75 0 4.7-4.25 7.76-11.45 7.76-4.09 0-8.5-1.28-10.82-2.82z" fill="#b88f4d"/>
  <path d="m56.13 173.5c0-7.77 5.19-12.52 13.19-12.52 5.29 0 9.4 2.4 11.3 6.82l-5.49 2.58c-1.4-2.65-3.02-3.6-5.85-3.6-3.85 0-5.86 3.33-5.86 6.72 0 3.69 2.25 6.72 6.26 6.72 2.83 0 4.45-1.23 5.73-3.78l5.49 2.93c-2.18 4.42-5.77 6.65-11.22 6.65-8 0-13.55-4.75-13.55-12.52z" fill="#b88f4d"/>
  <path d="m82.45 173.5c0-7.77 5.56-12.52 12.98-12.52 8 0 13.08 4.75 13.08 12.52 0 7.24-5.56 12.52-13.08 12.52-7.5 0-12.98-4.99-12.98-12.52zm19.08 0c0-4.57-2.82-7.16-6.1-7.16-3.76 0-6.22 2.71-6.22 7.01s2.5 6.95 6.22 6.95 6.1-2.73 6.1-6.8z" fill="#b88f4d"/>
  <path d="m110.7 173.5c0-7.77 5.56-12.52 12.98-12.52 8 0 13.61 4.75 13.61 12.52 0 7.24-5.57 12.52-13.61 12.52-7.5 0-12.98-4.99-12.98-12.52zm19.61 0c0-4.57-2.82-7.16-6.1-7.16-3.76 0-6.22 2.71-6.22 7.01s2.5 6.95 6.22 6.95 6.1-2.73 6.1-6.8z" fill="#b88f4d"/>
  <path d="m147.8 164.7c1.63-2.58 4.08-3.67 7.54-3.67 7.5 0 12.31 5.86 12.31 12.64 0 6.62-4.97 12.34-12.31 12.34-3.46 0-5.91-1.36-7.54-3.29v12.54h-6.67v-33.87h6.67v3.31zm12.65 8.97c0-4.38-3-7.03-6.16-7.03-3.64 0-6.29 2.78-6.29 6.89 0 4.27 2.73 6.99 6.29 6.99 3.52 0 6.16-2.88 6.16-6.85z" fill="#b88f4d"/>
</svg>